<svg width="81" height="46" viewBox="0 0 81 46" fill="none" xmlns="http://www.w3.org/2000/svg">
<path d="M16.272 45.896C12.9867 45.896 10 45.3413 7.312 44.232C4.66667 43.08 2.46933 41.4373 0.72 39.304L7.632 31.112C8.82667 32.648 10.064 33.8213 11.344 34.632C12.624 35.4 13.968 35.784 15.376 35.784C19.1307 35.784 21.008 33.608 21.008 29.256V9.992H5.52V0.199997H33.552V28.488C33.552 34.3333 32.08 38.7067 29.136 41.608C26.192 44.4667 21.904 45.896 16.272 45.896ZM68.217 0.199997H80.889V45H68.217V0.199997ZM50.937 45H38.265V0.199997H50.937V45ZM69.113 27.528H50.041V17.032H69.113V27.528Z" fill="black"/>
</svg>
